<?xml version="1.0" standalone="no"?>
<!DOCTYPE svg PUBLIC "-//W3C//DTD SVG 20010904//EN"
 "http://www.w3.org/TR/2001/REC-SVG-20010904/DTD/svg10.dtd">
<svg version="1.0" xmlns="http://www.w3.org/2000/svg"
 width="180.000000pt" height="180.000000pt" viewBox="0 0 180.000000 180.000000"
 preserveAspectRatio="xMidYMid meet">
<metadata>
Created by potrace 1.14, written by Peter Selinger 2001-2017
</metadata>
<g transform="translate(0.000000,180.000000) scale(0.100000,-0.100000)"
fill="#000000" stroke="none">
<path d="M110 1745 l0 -55 -55 0 -55 0 0 -785 0 -785 55 0 55 0 0 -60 0 -60
785 0 785 0 0 60 0 60 60 0 60 0 0 785 0 785 -60 0 -60 0 0 55 0 55 -785 0
-785 0 0 -55z m340 -450 l0 -55 55 0 55 0 0 -55 0 -55 -55 0 -55 0 0 -55 0
-55 -60 0 -60 0 0 55 0 55 -55 0 -55 0 0 55 0 55 55 0 55 0 0 55 0 55 60 0 60
0 0 -55z m1010 0 l0 -55 55 0 55 0 0 -55 0 -55 -55 0 -55 0 0 -55 0 -55 -55 0
-55 0 0 55 0 55 -60 0 -60 0 0 55 0 55 60 0 60 0 0 55 0 55 55 0 55 0 0 -55z
m-340 -450 l0 -55 -55 0 -55 0 0 -170 0 -170 170 0 170 0 0 60 0 60 55 0 55 0
0 -60 0 -60 -55 0 -55 0 0 -55 0 -55 -170 0 -170 0 0 55 0 55 -115 0 -115 0 0
-55 0 -55 -165 0 -165 0 0 55 0 55 -60 0 -60 0 0 60 0 60 60 0 60 0 0 -60 0
-60 165 0 165 0 0 170 0 170 -55 0 -55 0 0 55 0 55 225 0 225 0 0 -55z"/>
</g>
</svg>
