<?xml version="1.0" encoding="UTF-8"?>
<svg xmlns="http://www.w3.org/2000/svg" version="1.1" viewBox="0 0 180 180">
  <defs>
    <style>
      .cls-1 {
        fill: #fcfafa;
      }
    </style>
  </defs>
  <!-- Generator: Adobe Illustrator 28.6.0, SVG Export Plug-In . SVG Version: 1.2.0 Build 709)  -->
  <g>
    <g id="Layer_1">
      <g id="Layer_1-2" data-name="Layer_1">
        <g>
          <path class="cls-1" d="M78,135.3v-33.9h-11v-11h44.7v10.8h-10.8v34.1h0c-7.7-.1-15.4-.1-23.1-.1h.2Z"/>
          <path class="cls-1" d="M33,67.4h-10.9v-11.2h10.5v-10.7h12.2v10.6h11v11.2h-10.6v10.8h-12.2s0-10.7,0-10.7Z"/>
          <path class="cls-1" d="M146,45.5v10.5h10.8v11.2h-10.5v10.8h-11.4v-10.6h-11.7v-11.2h11.5v-10.8h11.4-.1Z"/>
          <path class="cls-1" d="M134.9,135.2v10.8h-33.9v-10.8h0c11.4.1,22.7.1,34.1.1h-.2Z"/>
          <path class="cls-1" d="M44.9,135.3h33.1,0v10.7h-32.9v-10.8h0Z"/>
          <path class="cls-1" d="M45,135.2h-11.8v-11.8h11.7v11.9h0Z"/>
          <path class="cls-1" d="M135,135.3v-11.8h10.8v11.7h-10.9,0Z"/>
        </g>
      </g>
    </g>
  </g>
</svg>